#!OML:ASF H:\ManfredETheater\Project 1\Capture day 1\Session 1\subject.ASF
:FULLY-SPECIFIED
:DEGREES
62
root 10.6886 18.5715 13.9221 -179.134 -32.3511 187.366
lowerback 21.3352 -1.93912 -1.53852
upperback 0.340248 -2.76364 3.59032
thorax -11.3617 -1.18467 5.76185
lowerneck -17.6229 -3.73157 -2.74509
upperneck 15.5752 -5.23572 3.9662
head 7.89281 -2.29436 1.13492
rclavicle -3.42904e-015 2.24627e-014
rhumerus -21.7326 6.07063 -27.7348
rradius 103.79
rwrist -4.03731
rhand -15.6127 3.67518
rfingers 7.12502
rthumb 10.5738 -26.0388
lclavicle -3.42904e-015 2.24627e-014
lhumerus 21.3252 -8.65799 53.8224
lradius 113.942
lwrist 18.8633
lhand -22.3129 -13.7643
lfingers 7.12502
lthumb 4.10662 16.1759
rfemur -92.3763 -25.4879 10.8281
rtibia 121.118
rfoot -15.2466 -0.883213
rtoes -20.8432
lfemur -13.8978 -8.30161 -17.6043
ltibia 33.0686
lfoot -2.86779 -6.94229
ltoes -9.58542
63
root 10.538 18.9108 13.5239 -179.99 -31.3665 187.838
lowerback 21.3843 -1.7507 -1.00519
upperback 0.535288 -2.39147 3.88078
thorax -11.2159 -1.05382 5.66594
lowerneck -17.1758 -3.63228 -2.84002
upperneck 16.4339 -5.03806 3.39087
head 8.0797 -2.27213 0.985267
rclavicle -5.65294e-014 -5.96354e-015
rhumerus -20.464 7.22553 -25.3283
rradius 102.048
rwrist -2.53621
rhand -15.3189 3.69278
rfingers 7.12502
rthumb 10.8572 -26.0066
lclavicle -5.65294e-014 -5.96354e-015
lhumerus 20.3729 -7.19244 51.1598
lradius 113.789
lwrist 17.8334
lhand -21.8223 -13.1436
lfingers 7.12502
lthumb 4.58039 16.7869
rfemur -92.8697 -23.0563 11.2056
rtibia 117.856
rfoot -15.6855 -1.47387
rtoes -22.4926
lfemur -10.2462 -9.53451 -17.3412
ltibia 29.4811
lfoot 2.87176 -4.75082
ltoes -11.8625
64
root 10.3896 19.2564 13.1266 -180.735 -30.356 188.224
lowerback 21.3313 -1.58762 -0.457612
upperback 0.747517 -2.06122 4.08985
thorax -10.9902 -0.946831 5.47411
lowerneck -16.6181 -3.51774 -2.96713
upperneck 17.3171 -4.83874 2.8819
head 8.25988 -2.25468 0.862912
rclavicle 7.33329e-014 -3.9086e-014
rhumerus -19.2948 8.58996 -23.6298
rradius 99.9118
rwrist -1.1738
rhand -15.1324 3.57233
rfingers 7.12502
rthumb 11.037 -26.1175
lclavicle 7.33329e-014 -3.9086e-014
lhumerus 18.9486 -6.13668 48.6698
lradius 113.21
lwrist 16.4572
lhand -21.185 -12.4892
lfingers 7.12502
lthumb 5.19568 17.4271
rfemur -93.1188 -20.8434 11.7017
rtibia 114.627
rfoot -16.0725 -1.8386
rtoes -24.4121
lfemur -7.03212 -10.7102 -17.2967
ltibia 26.3829
lfoot 9.02858 -1.95909
ltoes -11.9543
65
root 10.2452 19.606 12.7332 -181.326 -29.3447 188.479
lowerback 21.1899 -1.45998 0.0547915
upperback 0.970299 -1.79865 4.1956
thorax -10.6964 -0.870741 5.20044
lowerneck -15.9812 -3.38386 -3.10365
upperneck 18.2125 -4.6385 2.43759
head 8.43347 -2.24056 0.76321
rclavicle 2.35964e-014 7.15873e-014
rhumerus -18.1671 10.0638 -22.6887
rradius 97.4144
rwrist -0.174294
rhand -15.1455 3.3219
rfingers 7.12502
rthumb 11.0244 -26.3686
lclavicle 2.35964e-014 7.15873e-014
lhumerus 17.1098 -5.50051 46.4446
lradius 112.199
lwrist 14.7315
lhand -20.4582 -11.8392
lfingers 7.12502
lthumb 5.89748 18.0587
rfemur -93.2003 -18.8717 12.3137
rtibia 111.462
rfoot -16.3028 -2.10331
rtoes -26.3948
lfemur -4.41714 -11.6027 -17.4712
ltibia 24.0557
lfoot 14.9331 1.25327
ltoes -9.82713
66
root 10.108 19.9589 12.3433 -181.768 -28.4683 188.569
lowerback 21.0062 -1.40168 0.465586
upperback 1.19822 -1.66156 4.19397
thorax -10.361 -0.847184 4.9
lowerneck -15.2815 -3.22866 -3.23655
upperneck 19.0952 -4.43613 2.05296
head 8.59394 -2.22793 0.682557
rclavicle -5.19325e-015 -6.40832e-014
rhumerus -17.0276 11.5312 -22.4999
rradius 94.5895
rwrist 0.369935
rhand -15.3937 2.98347
rfingers 7.12502
rthumb 10.7851 -26.7196
lclavicle -5.19325e-015 -6.40832e-014
lhumerus 14.9237 -5.24502 44.6107
lradius 110.755
lwrist 12.7188
lhand -19.6996 -11.2594
lfingers 7.12502
lthumb 6.62984 18.6169
rfemur -93.0949 -17.2568 13.0114
rtibia 108.418
rfoot -16.3818 -2.40244
rtoes -28.1058
lfemur -2.57109 -11.9409 -17.8152
ltibia 22.8716
lfoot 19.9806 4.19017
ltoes -5.993
67
root 9.98046 20.3135 11.9589 -182.046 -27.7661 188.439
lowerback 20.8262 -1.4012 0.682018
upperback 1.43059 -1.652 4.08648
thorax -10.0108 -0.872024 4.63114
lowerneck -14.5722 -3.05798 -3.35653
upperneck 19.948 -4.23425 1.71235
head 8.74419 -2.21667 0.613337
rclavicle 1.89715e-014 1.89094e-014
rhumerus -15.837 12.8595 -23.0034
rradius 91.4779
rwrist 0.496957
rhand -15.8646 2.61995
rfingers 7.12502
rthumb 10.3308 -27.1063
lclavicle 1.89715e-014 1.89094e-014
lhumerus 12.4783 -5.26439 43.3017
lradius 108.886
lwrist 10.5241
lhand -18.9852 -10.7891
lfingers 7.12502
lthumb 7.31941 19.0643
rfemur -92.832 -16.0031 13.7328
rtibia 105.504
rfoot -16.2936 -2.84907
rtoes -29.3883
lfemur -1.57396 -11.4627 -18.29
ltibia 22.9896
lfoot 23.8659 6.04533
ltoes -1.137
68
root 9.86532 20.6546 11.5791 -182.149 -27.2686 188.057
lowerback 20.6729 -1.43846 0.632814
upperback 1.67054 -1.75528 3.89096
thorax -9.6558 -0.936422 4.451
lowerneck -13.8856 -2.88058 -3.45978
upperneck 20.7292 -4.03459 1.39895
head 8.87531 -2.20598 0.549145
rclavicle -1.21134e-016 2.11209e-016
rhumerus -14.595 13.9285 -24.096
rradius 88.1396
rwrist 0.359762
rhand -16.5306 2.30351
rfingers 7.12502
rthumb 9.68825 -27.4537
lclavicle -1.21134e-016 2.11209e-016
lhumerus 9.87549 -5.41075 42.6348
lradius 106.615
lwrist 8.29908
lhand -18.3968 -10.4754
lfingers 7.12502
lthumb 7.88739 19.3575
rfemur -92.5484 -15.1129 14.4155
rtibia 102.794
rfoot -16.0203 -3.47555
rtoes -30.1187
lfemur -1.44318 -10.1542 -18.8713
ltibia 24.4858
lfoot 26.592 6.21937
ltoes 3.85171
69
root 9.76074 20.9985 11.2086 -182.102 -26.976 187.42
lowerback 20.5939 -1.48579 0.2713
upperback 1.93002 -1.94249 3.64499
thorax -9.30826 -1.02797 4.42138
lowerneck -13.259 -2.70968 -3.5671
upperneck 21.4075 -3.83862 1.09829
head 8.9835 -2.19604 0.488433
rclavicle -7.30316e-014 -1.55052e-014
rhumerus -13.2899 14.6435 -25.6426
rradius 84.6184
rwrist 0.15564
rhand -17.2886 2.05988
rfingers 7.12502
rthumb 8.9569 -27.73
lclavicle -7.30316e-014 -1.55052e-014
lhumerus 7.19687 -5.50194 42.6803
lradius 103.99
lwrist 6.19318
lhand -17.9916 -10.3046
lfingers 7.12502
lthumb 8.27841 19.5132
rfemur -92.0729 -14.5329 14.9998
rtibia 100.185
rfoot -15.6738 -4.29831
rtoes -30.3009
lfemur -2.0451 -8.30493 -19.5908
ltibia 27.2167
lfoot 28.2511 4.72999
ltoes 7.71359
